<svg width="63" height="10" viewBox="0 0 63 10" fill="none" xmlns="http://www.w3.org/2000/svg">
<path d="M2.604 5.24V8H0.6V1.16H2.628L4.44 3.92C4.712 4.328 4.92 4.672 5.064 4.952H5.1V3.8V1.16H7.092V8H5.052L3.192 5.12L2.652 4.304H2.616L2.604 5.24ZM11.5158 6.56C11.7158 6.56 12.0878 6.54 12.6318 6.5C12.7038 6.5 12.8358 6.492 13.0278 6.476L13.2078 7.712C12.5918 8 11.7918 8.144 10.8078 8.144C9.88778 8.144 9.17978 7.912 8.68378 7.448C8.19578 6.984 7.95178 6.284 7.95178 5.348C7.95178 4.868 8.01178 4.404 8.13178 3.956C8.25978 3.508 8.40378 3.196 8.56378 3.02C8.73178 2.844 9.04378 2.692 9.49978 2.564C9.95578 2.436 10.4078 2.372 10.8558 2.372C11.5758 2.372 12.1158 2.5 12.4758 2.756C12.8358 3.012 13.0718 3.368 13.1838 3.824C13.2958 4.272 13.3518 4.876 13.3518 5.636C12.8078 5.668 12.2758 5.684 11.7558 5.684H10.0518C10.0518 5.94 10.1038 6.132 10.2078 6.26C10.3198 6.388 10.4758 6.472 10.6758 6.512C10.8758 6.544 11.1558 6.56 11.5158 6.56ZM10.1718 3.8C10.1238 3.824 10.0878 3.928 10.0638 4.112C10.0398 4.296 10.0238 4.504 10.0158 4.736H10.6398C11.0158 4.736 11.2878 4.732 11.4558 4.724C11.4558 4.34 11.3998 4.068 11.2878 3.908C11.1838 3.748 10.9998 3.668 10.7358 3.668C10.5198 3.668 10.3318 3.712 10.1718 3.8ZM17.866 2.36C18.442 2.36 18.898 2.552 19.234 2.936C19.578 3.312 19.75 3.972 19.75 4.916C19.75 5.62 19.682 6.196 19.546 6.644C19.41 7.084 19.254 7.376 19.078 7.52C18.902 7.664 18.594 7.78 18.154 7.868C17.722 7.956 17.274 8 16.81 8C16.674 8 16.446 7.992 16.126 7.976V9.68L14.074 9.764V2.48H15.754L15.958 3.332C16.166 3.036 16.43 2.8 16.75 2.624C17.078 2.448 17.45 2.36 17.866 2.36ZM17.386 6.536C17.474 6.472 17.538 6.292 17.578 5.996C17.618 5.692 17.638 5.404 17.638 5.132C17.638 4.684 17.582 4.352 17.47 4.136C17.358 3.92 17.134 3.812 16.798 3.812C16.558 3.812 16.334 3.836 16.126 3.884V6.548L16.462 6.584C16.566 6.592 16.714 6.596 16.906 6.596C17.178 6.596 17.338 6.576 17.386 6.536ZM23.8425 8L23.6505 7.244C23.2825 7.844 22.7705 8.144 22.1145 8.144C21.5785 8.144 21.1385 7.996 20.7945 7.7C20.4585 7.396 20.2905 6.972 20.2905 6.428C20.2905 6.092 20.3865 5.8 20.5785 5.552C20.7785 5.296 21.0505 5.116 21.3945 5.012C21.8425 4.884 22.5345 4.812 23.4705 4.796C23.4705 4.268 23.4465 3.988 23.3985 3.956C23.3585 3.924 23.2305 3.908 23.0145 3.908C22.8785 3.908 22.6905 3.916 22.4505 3.932C22.0665 3.948 21.5465 3.992 20.8905 4.064C20.8265 3.632 20.7785 3.168 20.7465 2.672C21.1705 2.584 21.6145 2.512 22.0785 2.456C22.5425 2.392 22.9585 2.36 23.3265 2.36C23.9665 2.36 24.4465 2.468 24.7665 2.684C25.0865 2.892 25.2945 3.168 25.3905 3.512C25.4865 3.856 25.5305 4.292 25.5225 4.82L25.5105 6.584L25.5465 8H23.8425ZM22.8105 6.8C23.0185 6.8 23.2385 6.76 23.4705 6.68V5.792H23.3745C22.7825 5.792 22.4545 5.824 22.3905 5.888C22.3505 5.928 22.3185 5.988 22.2945 6.068C22.2785 6.148 22.2705 6.224 22.2705 6.296C22.2705 6.488 22.3145 6.62 22.4025 6.692C22.4905 6.764 22.6265 6.8 22.8105 6.8ZM26.485 0.8L28.537 0.715999V8H26.485V0.8ZM35.9072 4.388C36.4512 4.452 36.8392 4.636 37.0712 4.94C37.3032 5.236 37.4192 5.596 37.4192 6.02C37.4192 6.284 37.3792 6.536 37.2992 6.776C37.2192 7.008 37.1232 7.208 37.0112 7.376C36.8992 7.536 36.8032 7.64 36.7232 7.688C36.4032 7.896 35.4272 8 33.7952 8H31.4672V1.16H34.2872C34.9272 1.16 35.4432 1.196 35.8352 1.268C36.2352 1.332 36.5592 1.484 36.8072 1.724C37.0552 1.956 37.1792 2.312 37.1792 2.792C37.1792 3.208 37.0752 3.544 36.8672 3.8C36.6672 4.056 36.3472 4.232 35.9072 4.328V4.388ZM34.9472 2.612C34.8672 2.532 34.7712 2.484 34.6592 2.468C34.5552 2.444 34.3872 2.432 34.1552 2.432C33.9232 2.432 33.7472 2.436 33.6272 2.444V3.908H33.7472C33.7872 3.908 33.9552 3.908 34.2512 3.908C34.5472 3.908 34.7432 3.888 34.8392 3.848C34.9112 3.816 34.9752 3.732 35.0312 3.596C35.0952 3.46 35.1272 3.312 35.1272 3.152C35.1272 2.912 35.0672 2.732 34.9472 2.612ZM35.1512 6.62C35.2072 6.572 35.2512 6.484 35.2832 6.356C35.3232 6.22 35.3432 6.084 35.3432 5.948C35.3432 5.78 35.3192 5.624 35.2712 5.48C35.2312 5.328 35.1752 5.22 35.1032 5.156C35.0312 5.084 34.9272 5.036 34.7912 5.012C34.6632 4.988 34.4432 4.976 34.1312 4.976C33.9312 4.976 33.7632 4.98 33.6272 4.988V6.728C34.0032 6.736 34.3392 6.732 34.6352 6.716C34.9312 6.692 35.1032 6.66 35.1512 6.62ZM41.5027 8L41.3107 7.244C40.9427 7.844 40.4307 8.144 39.7747 8.144C39.2387 8.144 38.7987 7.996 38.4547 7.7C38.1187 7.396 37.9507 6.972 37.9507 6.428C37.9507 6.092 38.0467 5.8 38.2387 5.552C38.4387 5.296 38.7107 5.116 39.0547 5.012C39.5027 4.884 40.1947 4.812 41.1307 4.796C41.1307 4.268 41.1067 3.988 41.0587 3.956C41.0187 3.924 40.8907 3.908 40.6747 3.908C40.5387 3.908 40.3507 3.916 40.1107 3.932C39.7267 3.948 39.2067 3.992 38.5507 4.064C38.4867 3.632 38.4387 3.168 38.4067 2.672C38.8307 2.584 39.2747 2.512 39.7387 2.456C40.2027 2.392 40.6187 2.36 40.9867 2.36C41.6267 2.36 42.1067 2.468 42.4267 2.684C42.7467 2.892 42.9547 3.168 43.0507 3.512C43.1467 3.856 43.1907 4.292 43.1827 4.82L43.1707 6.584L43.2067 8H41.5027ZM40.4707 6.8C40.6787 6.8 40.8987 6.76 41.1307 6.68V5.792H41.0347C40.4427 5.792 40.1147 5.824 40.0507 5.888C40.0107 5.928 39.9787 5.988 39.9547 6.068C39.9387 6.148 39.9307 6.224 39.9307 6.296C39.9307 6.488 39.9747 6.62 40.0627 6.692C40.1507 6.764 40.2867 6.8 40.4707 6.8ZM48.8972 6.656V8H43.9412V6.62L46.6052 3.788H44.0132V2.48H48.8372V3.848L46.1852 6.656H48.8972ZM52.9988 8L52.8068 7.244C52.4388 7.844 51.9268 8.144 51.2708 8.144C50.7348 8.144 50.2948 7.996 49.9508 7.7C49.6148 7.396 49.4468 6.972 49.4468 6.428C49.4468 6.092 49.5428 5.8 49.7348 5.552C49.9348 5.296 50.2068 5.116 50.5508 5.012C50.9988 4.884 51.6908 4.812 52.6268 4.796C52.6268 4.268 52.6028 3.988 52.5548 3.956C52.5148 3.924 52.3868 3.908 52.1708 3.908C52.0348 3.908 51.8468 3.916 51.6068 3.932C51.2228 3.948 50.7028 3.992 50.0468 4.064C49.9828 3.632 49.9348 3.168 49.9028 2.672C50.3268 2.584 50.7708 2.512 51.2348 2.456C51.6988 2.392 52.1148 2.36 52.4828 2.36C53.1228 2.36 53.6028 2.468 53.9228 2.684C54.2428 2.892 54.4508 3.168 54.5468 3.512C54.6428 3.856 54.6868 4.292 54.6788 4.82L54.6668 6.584L54.7028 8H52.9988ZM51.9668 6.8C52.1748 6.8 52.3948 6.76 52.6268 6.68V5.792H52.5308C51.9388 5.792 51.6108 5.824 51.5468 5.888C51.5068 5.928 51.4748 5.988 51.4508 6.068C51.4348 6.148 51.4268 6.224 51.4268 6.296C51.4268 6.488 51.4708 6.62 51.5588 6.692C51.6468 6.764 51.7828 6.8 51.9668 6.8ZM59.0253 2.36C59.1293 2.36 59.2373 2.372 59.3493 2.396C59.4693 2.42 59.5573 2.448 59.6133 2.48C59.6133 2.656 59.5933 2.948 59.5533 3.356C59.5133 3.756 59.4773 4.04 59.4453 4.208C59.3653 4.2 59.2173 4.196 59.0013 4.196C58.4973 4.196 58.0493 4.224 57.6573 4.28V8H55.6053V2.48H57.3213L57.5613 3.368H57.5733C57.8053 3.064 58.0533 2.82 58.3173 2.636C58.5813 2.452 58.8173 2.36 59.0253 2.36ZM61.2682 8.096C60.9402 8.096 60.6682 7.988 60.4522 7.772C60.2442 7.556 60.1402 7.264 60.1402 6.896C60.1402 6.576 60.2482 6.308 60.4642 6.092C60.6882 5.868 60.9682 5.756 61.3042 5.756C61.6242 5.756 61.8922 5.868 62.1082 6.092C62.3242 6.308 62.4322 6.576 62.4322 6.896C62.4322 7.264 62.3242 7.556 62.1082 7.772C61.9002 7.988 61.6202 8.096 61.2682 8.096Z" fill="white"/>
</svg>
